<?xml version="1.0" encoding="UTF-8"?>
<svg version="1.1" viewBox="0 0 212 342" xmlns="http://www.w3.org/2000/svg" xmlns:cc="http://creativecommons.org/ns#" xmlns:dc="http://purl.org/dc/elements/1.1/" xmlns:rdf="http://www.w3.org/1999/02/22-rdf-syntax-ns#">
	<title>WARC Response Record</title>
	<defs>
		<style><![CDATA[
			@import url('https://fonts.googleapis.com/css2?family=Recursive:wght,CRSV,MONO@500,0,1&display=swap');
		]]></style>
	</defs>
	<g transform="translate(8 8)">
		<rect x=".397" y=".397" width="195" height="325" style="fill:#008873;stroke-miterlimit:2;stroke-width:.794;stroke:#000"/>
		<text class="chunk-whitetext" x="14.547862" y="8.0502977" style="fill:#fff;font-family:Recursive, monospace;font-size:3.18px;font-variant-caps:normal;font-variant-east-asian:normal;font-variant-ligatures:normal;font-variant-numeric:normal;font-variation-settings:'CRSV' 0, 'MONO' 1, 'wght' 500;" xml:space="preserve"><tspan x="14.547862" y="8.0502977">WARC/1.1</tspan><tspan x="14.547862" y="12.019048">WARC-Record-ID: &lt;urn:uuid:0a979ffc-06d8-5137-b73d-9d4426f4975f&gt;</tspan><tspan x="14.547862" y="15.987798">WARC-Page-ID: 2ike7d03a4am5z9xwc5htg</tspan><tspan x="14.547862" y="19.956547">WARC-JSON-Metadata: {"pixelRatio":2}</tspan><tspan x="14.547862" y="23.925297">WARC-Target-URI: http://example.com/</tspan><tspan x="14.547862" y="27.894047">WARC-Date: 2023-03-11T02:08:50.619Z</tspan><tspan x="14.547862" y="31.862797">WARC-Type: response</tspan><tspan x="14.547862" y="35.831547">Content-Type: application/http; msgtype=response</tspan><tspan x="14.547862" y="39.800297">WARC-Payload-Digest: sha256:ea8fac7c65fb589b0d53560f5251f74f9e9b243478dcb6b3ea79b5e36449c8d9</tspan><tspan x="14.547862" y="43.769047">WARC-Block-Digest: sha256:d11c93d5ddb0c6997177051dfe0ada778cde4e238fbe8b79ee5e8a6f7f80f490</tspan><tspan x="14.547862" y="47.737797">Content-Length: 1638</tspan><tspan x="14.547862" y="51.706547"/><tspan x="14.547862" y="55.675297">HTTP/1.1 200 OK</tspan><tspan x="14.547862" y="59.644047">Accept-Ranges: bytes</tspan><tspan x="14.547862" y="63.612797">Age: 210020</tspan><tspan x="14.547862" y="67.581551">Cache-Control: max-age=604800</tspan><tspan x="14.547862" y="71.550293">Content-Length: 1256</tspan><tspan x="14.547862" y="75.519043">Content-Type: text/html; charset=UTF-8</tspan><tspan x="14.547862" y="79.487793">Date: Sat, 11 Mar 2023 02:08:50 GMT</tspan><tspan x="14.547862" y="83.456543">Etag: "3147526947"</tspan><tspan x="14.547862" y="87.425293">Expires: Sat, 18 Mar 2023 02:08:50 GMT</tspan><tspan x="14.547862" y="91.394043">Last-Modified: Thu, 17 Oct 2019 07:18:26 GMT</tspan><tspan x="14.547862" y="95.362793">Server: ECS (sab/571A)</tspan><tspan x="14.547862" y="99.331543">Vary: Accept-Encoding</tspan><tspan x="14.547862" y="103.30029">X-Cache: HIT</tspan><tspan x="14.547862" y="107.26904">x-orig-Content-Encoding: gzip</tspan><tspan x="14.547862" y="111.23779"/><tspan x="14.547862" y="115.20654"/><tspan x="14.547862" y="119.17529">&lt;!doctype html&gt;</tspan><tspan x="14.547862" y="123.14404">&lt;html&gt;</tspan><tspan x="14.547862" y="127.11279">&lt;head&gt;</tspan><tspan x="14.547862" y="131.08154">    &lt;title&gt;Example Domain&lt;/title&gt;</tspan><tspan x="14.547862" y="135.05029"/><tspan x="14.547862" y="139.01904"/><tspan x="14.547862" y="142.98779">    &lt;meta charset="utf-8" /&gt;</tspan><tspan x="14.547862" y="146.95654">    &lt;meta http-equiv="Content-type" content="text/html; charset=utf-8" /&gt;</tspan><tspan x="14.547862" y="150.92529">    &lt;meta name="viewport" content="width=device-width, initial-scale=1" /&gt;</tspan><tspan x="14.547862" y="154.89404">    &lt;style type="text/css"&gt;</tspan><tspan x="14.547862" y="158.86279">    body {</tspan><tspan x="14.547862" y="162.83154">        background-color: #f0f0f2;</tspan><tspan x="14.547862" y="166.80029">        margin: 0;</tspan><tspan x="14.547862" y="170.76904">        padding: 0;</tspan><tspan x="14.547862" y="174.73779">        font-family: -apple-system, system-ui, BlinkMacSystemFont, "Segoe UI", "Open Sans", </tspan><tspan x="14.547862" y="178.70654">        "Helvetica Neue", Helvetica, Arial, sans-serif;</tspan><tspan x="14.547862" y="182.67529">        </tspan><tspan x="14.547862" y="186.64404">    }</tspan><tspan x="14.547862" y="190.61279">    div {</tspan><tspan x="14.547862" y="194.58154">        width: 600px;</tspan><tspan x="14.547862" y="198.55029">        margin: 5em auto;</tspan><tspan x="14.547862" y="202.51904">        padding: 2em;</tspan><tspan x="14.547862" y="206.48779">        background-color: #fdfdff;</tspan><tspan x="14.547862" y="210.45654">        border-radius: 0.5em;</tspan><tspan x="14.547862" y="214.42529">        box-shadow: 2px 3px 7px 2px rgba(0,0,0,0.02);</tspan><tspan x="14.547862" y="218.39404">    }</tspan><tspan x="14.547862" y="222.36279">    a:link, a:visited {</tspan><tspan x="14.547862" y="226.33154">        color: #38488f;</tspan><tspan x="14.547862" y="230.30029">        text-decoration: none;</tspan><tspan x="14.547862" y="234.26904">    }</tspan><tspan x="14.547862" y="238.23779">    @media (max-width: 700px) {</tspan><tspan x="14.547862" y="242.20654">        div {</tspan><tspan x="14.547862" y="246.17529">            margin: 0 auto;</tspan><tspan x="14.547862" y="250.14404">            width: auto;</tspan><tspan x="14.547862" y="254.11279">        }</tspan><tspan x="14.547862" y="258.08154">    }</tspan><tspan x="14.547862" y="262.05029">    &lt;/style&gt;    </tspan><tspan x="14.547862" y="266.01904">&lt;/head&gt;</tspan><tspan x="14.547862" y="269.98779"/><tspan x="14.547862" y="273.95654"/><tspan x="14.547862" y="277.92529">&lt;body&gt;</tspan><tspan x="14.547862" y="281.89404">&lt;div&gt;</tspan><tspan x="14.547862" y="285.86279">    &lt;h1&gt;Example Domain&lt;/h1&gt;</tspan><tspan x="14.547862" y="289.83154">    &lt;p&gt;This domain is for use in illustrative examples in documents. You may use this</tspan><tspan x="14.547862" y="293.80029">    domain in literature without prior coordination or asking for permission.&lt;/p&gt;</tspan><tspan x="14.547862" y="297.76904">    &lt;p&gt;&lt;a href="https://www.iana.org/domains/example"&gt;More information...&lt;/a&gt;&lt;/p&gt;</tspan><tspan x="14.547862" y="301.73779">&lt;/div&gt;</tspan><tspan x="14.547862" y="305.70654">&lt;/body&gt;</tspan><tspan x="14.547862" y="309.67529">&lt;/html&gt;</tspan><tspan x="14.547862" y="313.64404"/><tspan x="14.547862" y="317.61279"/><tspan x="14.547862" y="321.58154"/><tspan x="14.547862" y="325.55029"/><tspan x="14.547862" y="329.51904"/></text>
		<text class="chunk-whitetext" x="11.046898" y="8.0502977" style="fill:#003c32;font-family:Recursive, monospace;font-size:3.18px;font-variant-caps:normal;font-variant-east-asian:normal;font-variant-ligatures:normal;font-variant-numeric:normal;font-variation-settings:'CRSV' 0, 'MONO' 1, 'wght' 500;text-align:end;text-anchor:end" xml:space="preserve"><tspan x="11.046898" y="8.0502977">1.</tspan><tspan x="11.046898" y="12.019048">2.</tspan><tspan x="11.046898" y="15.987798">3.</tspan><tspan x="11.046898" y="19.956547">4.</tspan><tspan x="11.046898" y="23.925297">5.</tspan><tspan x="11.046898" y="27.894047">6.</tspan><tspan x="11.046898" y="31.862797">7.</tspan><tspan x="11.046898" y="35.831547">8.</tspan><tspan x="11.046898" y="39.800297">9.</tspan><tspan x="11.046898" y="43.769047">10.</tspan><tspan x="11.046898" y="47.737797">11.</tspan><tspan x="11.046898" y="51.706547">12.</tspan><tspan x="11.046898" y="55.675297">13.</tspan><tspan x="11.046898" y="59.644047">14.</tspan><tspan x="11.046898" y="63.612797">15.</tspan><tspan x="11.046898" y="67.581551">16.</tspan><tspan x="11.046898" y="71.550293">17.</tspan><tspan x="11.046898" y="75.519043">18.</tspan><tspan x="11.046898" y="79.487793">19.</tspan><tspan x="11.046898" y="83.456543">20.</tspan><tspan x="11.046898" y="87.425293">21.</tspan><tspan x="11.046898" y="91.394043">22.</tspan><tspan x="11.046898" y="95.362793">23.</tspan><tspan x="11.046898" y="99.331543">24.</tspan><tspan x="11.046898" y="103.30029">25.</tspan><tspan x="11.046898" y="107.26904">26.</tspan><tspan x="11.046898" y="111.23779">27.</tspan><tspan x="11.046898" y="115.20654"/><tspan x="11.046898" y="119.17529">28.</tspan><tspan x="11.046898" y="123.14404">29.</tspan><tspan x="11.046898" y="127.11279">30.</tspan><tspan x="11.046898" y="131.08154">31.</tspan><tspan x="11.046898" y="135.05029">32.</tspan><tspan x="11.046898" y="139.01904">33.</tspan><tspan x="11.046898" y="142.98779">34.</tspan><tspan x="11.046898" y="146.95654">35.</tspan><tspan x="11.046898" y="150.92529">36.</tspan><tspan x="11.046898" y="154.89404">37.</tspan><tspan x="11.046898" y="158.86279">38.</tspan><tspan x="11.046898" y="162.83154">39.</tspan><tspan x="11.046898" y="166.80029">40.</tspan><tspan x="11.046898" y="170.76904">41.</tspan><tspan x="11.046898" y="174.73779">42.</tspan><tspan x="11.046898" y="178.70654">.</tspan><tspan x="11.046898" y="182.67529">43.</tspan><tspan x="11.046898" y="186.64404">44.</tspan><tspan x="11.046898" y="190.61279">45.</tspan><tspan x="11.046898" y="194.58154">46.</tspan><tspan x="11.046898" y="198.55029">47.</tspan><tspan x="11.046898" y="202.51904">48.</tspan><tspan x="11.046898" y="206.48779">49.</tspan><tspan x="11.046898" y="210.45654">50.</tspan><tspan x="11.046898" y="214.42529">51.</tspan><tspan x="11.046898" y="218.39404">52.</tspan><tspan x="11.046898" y="222.36279">53.</tspan><tspan x="11.046898" y="226.33154">54.</tspan><tspan x="11.046898" y="230.30029">55.</tspan><tspan x="11.046898" y="234.26904">56.</tspan><tspan x="11.046898" y="238.23779">57.</tspan><tspan x="11.046898" y="242.20654">58.</tspan><tspan x="11.046898" y="246.17529">59.</tspan><tspan x="11.046898" y="250.14404">60.</tspan><tspan x="11.046898" y="254.11279">61.</tspan><tspan x="11.046898" y="258.08154">62.</tspan><tspan x="11.046898" y="262.05029">63.</tspan><tspan x="11.046898" y="266.01904">64.</tspan><tspan x="11.046898" y="269.98779">65.</tspan><tspan x="11.046898" y="273.95654">66.</tspan><tspan x="11.046898" y="277.92529">67.</tspan><tspan x="11.046898" y="281.89404">68.</tspan><tspan x="11.046898" y="285.86279">69.</tspan><tspan x="11.046898" y="289.83154">70.</tspan><tspan x="11.046898" y="293.80029">71.</tspan><tspan x="11.046898" y="297.76904">72.</tspan><tspan x="11.046898" y="301.73779">73.</tspan><tspan x="11.046898" y="305.70654">74.</tspan><tspan x="11.046898" y="309.67529">75.</tspan><tspan x="11.046898" y="313.64404"/><tspan x="11.046898" y="317.61279">76.</tspan><tspan x="11.046898" y="321.58154">77.</tspan><tspan x="11.046898" y="325.55029"/></text>
		<rect x=".397" y="114" width="195" height=".794" style="fill:#000;"/>
		<rect x=".397" y="312" width="195" height=".794" style="fill:#000;"/>
		<g>
			<rect x="137" y="6.68" width="52.1" height="8.47" ry=".794" style="fill:#d9d9d9;font-variation-settings:'CRSV' 0, 'MONO' 1, 'wght' 500;stroke-miterlimit:2;stroke-width:.794;stroke:#000"/>
			<text x="163.38016" y="12.076584" style="fill:#000;font-family:Recursive, monospace;font-size:3.18px;font-variation-settings:'CRSV' 0, 'MONO' 1, 'wght' 500;line-height:1.3;stroke-miterlimit:2;stroke-width:.794;text-align:center;text-anchor:middle" xml:space="preserve"><tspan x="163.38016" y="12.076584" style="text-align:center;text-anchor:middle">WARC Record &amp; HTTP Header</tspan></text>
			<rect x="162" y="120" width="27.1" height="8.47" ry=".794" style="fill:#d9d9d9;font-variation-settings:'CRSV' 0, 'MONO' 1, 'wght' 500;stroke-miterlimit:2;stroke-width:.794;stroke:#000"/>
			<text x="175.73518" y="125.31824" style="fill:#000;font-family:Recursive, monospace;font-size:3.18px;font-variation-settings:'CRSV' 0, 'MONO' 1, 'wght' 500;line-height:1.3;stroke-miterlimit:2;stroke-width:.794;text-align:center;text-anchor:middle" xml:space="preserve"><tspan x="175.73518" y="125.31824" style="text-align:center;text-anchor:middle">HTTP Payload</tspan></text>
			<rect x="162" y="315" width="27.1" height="8.47" ry=".794" style="fill:#d9d9d9;font-variation-settings:'CRSV' 0, 'MONO' 1, 'wght' 500;stroke-miterlimit:2;stroke-width:.794;stroke:#000"/>
			<text x="175.73497" y="320.31665" style="fill:#000;font-family:Recursive, monospace;font-size:3.18px;font-variation-settings:'CRSV' 0, 'MONO' 1, 'wght' 500;line-height:1.3;stroke-miterlimit:2;stroke-width:.794;text-align:center;text-anchor:middle" xml:space="preserve"><tspan x="175.73497" y="320.31665" style="text-align:center;text-anchor:middle">2× Newlines</tspan></text>
		</g>
	</g>
	<metadata>
		<rdf:RDF>
			<cc:Work rdf:about="">
				<cc:license rdf:resource="http://creativecommons.org/licenses/by/4.0/"/>
				<dc:title>WARC Response Record</dc:title>
				<dc:description>A full response record with a payload with divider lines between the chunk sections.  The WARC data and HTTP headers are located in the first chunk, the payload data (in this case www.example.com) is located within the second chunk, and finally two newline characters seperating this WARC record from the next one in the WARC file are located in the last chunk.</dc:description>
			</cc:Work>
			<cc:License rdf:about="http://creativecommons.org/licenses/by/4.0/">
				<cc:permits rdf:resource="http://creativecommons.org/ns#Reproduction"/>
				<cc:permits rdf:resource="http://creativecommons.org/ns#Distribution"/>
				<cc:requires rdf:resource="http://creativecommons.org/ns#Notice"/>
				<cc:requires rdf:resource="http://creativecommons.org/ns#Attribution"/>
				<cc:permits rdf:resource="http://creativecommons.org/ns#DerivativeWorks"/>
			</cc:License>
		</rdf:RDF>
	</metadata>
</svg>
