<svg xmlns="http://www.w3.org/2000/svg" viewBox="0 0 174 96"><path d="M5996.61 1717.32c-5.03 5.55-8.26 14.15-8.26 23.8 0 16.73 9.7 30.31 21.66 30.31h18.78c11.96 0 21.67-13.58 21.67-30.31v-7.07c0-.53.15-1.05.42-1.43s.64-.59 1.02-.59h10.11c.39 0 .75.21 1.02.59s.43.9.43 1.43v7.07c0 26.76-15.54 48.49-34.67 48.49h-18.78c-19.13 0-34.66-21.73-34.66-48.49 0-14.66 4.66-27.82 12.02-36.71l-7.18-10.05c-.21-.29-.27-.72-.16-1.1s.38-.63.67-.63h23.53c.4 0 .73.46.73 1.01v32.92c0 .41-.18.78-.45.94-.27.15-.58.06-.79-.22z" style="fill:#088eaf" transform="matrix(1.3846 0 0 .98996 -8273.538 -1675.636)"/><path d="M5996.61 1717.32c-5.03 5.55-8.26 14.15-8.26 23.8 0 16.73 9.7 30.31 21.66 30.31h18.78c11.96 0 21.67-13.58 21.67-30.31v-7.07c0-.53.15-1.05.42-1.43s.64-.59 1.02-.59h10.11c.39 0 .75.21 1.02.59s.43.9.43 1.43v7.07c0 26.76-15.54 48.49-34.67 48.49h-18.78c-19.13 0-34.66-21.73-34.66-48.49 0-14.66 4.66-27.82 12.02-36.71l-7.18-10.05c-.21-.29-.27-.72-.16-1.1s.38-.63.67-.63h23.53c.4 0 .73.46.73 1.01v32.92c0 .41-.18.78-.45.94-.27.15-.58.06-.79-.22z" style="fill:#4d7c0f" transform="matrix(-1.3846 0 0 -.98996 8447.539 1771.624)"/></svg>
