<?xml version="1.0" encoding="UTF-8"?>
<!-- Created with Inkscape (http://www.inkscape.org/) -->
<svg id="svg5839" width="400" height="400" version="1.1" viewBox="0 0 105.83 105.83" xmlns="http://www.w3.org/2000/svg" xmlns:cc="http://creativecommons.org/ns#" xmlns:dc="http://purl.org/dc/elements/1.1/" xmlns:rdf="http://www.w3.org/1999/02/22-rdf-syntax-ns#" xmlns:xlink="http://www.w3.org/1999/xlink">
 <defs id="defs5833">
  <linearGradient id="linearGradient6615" x1="2.974" x2="97.913" y1="48.224" y2="48.224" gradientTransform="matrix(1.291 0 0 1.291 126.71 146.96)" gradientUnits="userSpaceOnUse">
   <stop id="stop5687" stop-color="#4876ff" offset="0"/>
   <stop id="stop5689" stop-color="#04cdff" offset="1"/>
  </linearGradient>
 </defs>
 <metadata id="metadata5836">
  <rdf:RDF>
   <cc:Work rdf:about="">
    <dc:format>image/svg+xml</dc:format>
    <dc:type rdf:resource="http://purl.org/dc/dcmitype/StillImage"/>
    <dc:title/>
   </cc:Work>
  </rdf:RDF>
 </metadata>
 <g id="layer1" transform="translate(0 -191.17)">
  <g id="g5746" transform="matrix(.29502 0 0 .29502 -13.506 -55.88)">
   <g id="g5736" transform="matrix(3.2253 0 0 3.2253 -604.66 14.194)">
    <g id="g6654" transform="matrix(.89288 0 0 .89288 89.41 122.02)">
     <circle id="path6016-0-7-6-9-11-2-8-67-6-50-4-33" transform="rotate(.86916)" cx="191.83" cy="209.22" r="61.282" fill="url(#linearGradient6615)" style="paint-order:normal"/>
     <path id="path114-4-0-85-6-0-5-3-6-1-6" d="m213.98 227.49h10.049c7.0022 0 12.698-5.6958 12.698-12.698 0-7.0022-5.6958-12.698-12.698-12.698h-28.658c-7.0022 0-12.698 5.6958-12.698 12.698 0 3.6134 1.5234 6.868 3.953 9.1827-1.5259 1.0237-3.3539 1.6292-5.3253 1.6292h-3.8252c-1.9158-3.1603-3.0402-6.8538-3.0402-10.812 0-11.544 9.3918-20.936 20.936-20.936h28.658c11.544 0 20.934 9.3905 20.934 20.936 0 11.545-9.3922 21.13-20.934 20.936l-10.025 0.27166v-4z" fill="#f5c71a" stroke-width="1.291"/>
     <path id="path116-9-4-7-0-8-3-2-08-9-1" d="m163 202-8.9897 0.0946c-7.0019 0.0737-12.698 5.6958-12.698 12.699 0 7.001 5.6958 12.697 12.698 12.697h28.658c7.0022 0 12.698-5.6958 12.698-12.697 0-3.6134-1.5234-6.8693-3.953-9.184 1.5259-1.0238 3.3539-1.6279 5.3253-1.6279h3.8226c1.9171 3.159 3.0415 6.8525 3.0415 10.812 0 11.543-9.3905 20.934-20.934 20.934h-28.658c-11.543 0-20.936-9.3905-20.936-20.934 0-11.545 9.3933-21.121 20.936-20.937l8.9897 0.14311v4z" fill="#64e986" stroke-width="1.291"/>
     <path id="path3919-5-9-8-6-6-56-0-37-5-8" transform="matrix(-.70292 0 0 .73239 212.74 173.39)" d="m73.729 47.246-21.722-12.671 21.834-12.477-0.05599 12.574z" fill="#64e986" style="paint-order:normal"/>
     <path id="path3919-3-3-7-5-9-7-2-6-8-7-7" transform="matrix(.75733 0 0 -.7498 161.49 257.29)" d="m73.729 47.246-21.722-12.671 21.834-12.477-0.05599 12.574z" fill="#f5c71a" style="paint-order:normal"/>
    </g>
   </g>
  </g>
 </g>
</svg>
